<svg width="60" height="60" viewBox="0 0 60 60" xmlns="http://www.w3.org/2000/svg">
  <defs>
    <linearGradient id="cakeGradient" x1="0%" y1="0%" x2="100%" y2="100%">
      <stop offset="0%" stop-color="#ffb8e7" />
      <stop offset="100%" stop-color="#ff71c3" />
    </linearGradient>
    <linearGradient id="frostingGradient" x1="0%" y1="0%" x2="100%" y2="100%">
      <stop offset="0%" stop-color="#ffffff" />
      <stop offset="100%" stop-color="#f0f0f0" />
    </linearGradient>
  </defs>
  <!-- Base do bolo -->
  <path d="M10 30 L10 50 C10 52 12 55 15 55 L45 55 C48 55 50 52 50 50 L50 30 Z" fill="url(#cakeGradient)" />
  
  <!-- Cobertura do bolo -->
  <path d="M5 30 C5 25 15 20 30 20 C45 20 55 25 55 30 C55 35 45 40 30 40 C15 40 5 35 5 30 Z" fill="url(#frostingGradient)" />
  
  <!-- Decorações -->
  <circle cx="20" cy="28" r="2" fill="#ff5e9f" />
  <circle cx="40" cy="28" r="2" fill="#ff5e9f" />
  <circle cx="30" cy="25" r="2" fill="#ff5e9f" />
  
  <!-- Vela -->
  <rect x="29" y="10" width="2" height="10" fill="#7e71ff" />
  <circle cx="30" cy="10" r="2" fill="#ffcc00">
    <animate attributeName="opacity" values="0.7;1;0.7" dur="1.5s" repeatCount="indefinite" />
  </circle>
</svg>